<svg viewBox="0 0 220 220" xmlns="http://www.w3.org/2000/svg" role="img" aria-label="8 circles of radius 0.7 in polygon">
  <style>
    .bg { fill: #fff; }
    .cells path { fill: rgba(80, 110, 200, 0.06); stroke: #b6bdcd; stroke-width: 0.6; }
    .boundary { fill: none; stroke: #1a1a1a; stroke-width: 1.4; stroke-linejoin: round; }
    .sites circle { fill: #c2410c; stroke: #fff; stroke-width: 1; }
    .sites circle.disc { fill: rgba(194, 65, 12, 0.25); stroke: #c2410c; stroke-width: 1.2; }
  </style>
  <rect class="bg" width="100%" height="100%" />
  <g class="cells"><path d="M129.41,130.69 L157.70,160.13 L206.00,150.25 L206.00,110.00 L134.83,110.00 Z" /><path d="M14.00,49.38 L73.25,78.48 L110.00,63.76 L110.00,14.00 L14.00,14.00 Z" /><path d="M149.34,206.00 L206.00,206.00 L206.00,150.25 L157.70,160.13 Z" /><path d="M14.00,129.99 L57.29,131.03 L73.25,78.48 L14.00,49.38 Z" /><path d="M101.79,147.01 L108.73,206.00 L149.34,206.00 L157.70,160.13 L129.41,130.69 Z" /><path d="M57.29,131.03 L66.73,140.73 L101.79,147.01 L129.41,130.69 L134.83,110.00 L110.00,110.00 L110.00,63.76 L73.25,78.48 Z" /><path d="M14.00,206.00 L50.51,206.00 L66.73,140.73 L57.29,131.03 L14.00,129.99 Z" /><path d="M50.51,206.00 L108.73,206.00 L101.79,147.01 L66.73,140.73 Z" /></g>
  <path class="boundary" d="M14.00,206.00 L206.00,206.00 L206.00,110.00 L110.00,110.00 L110.00,14.00 L14.00,14.00 Z" />
  <g class="sites"><circle class="disc" cx="170.50" cy="131.70" r="13.44" /><circle cx="170.50" cy="131.70" r="2" /><circle class="disc" cx="64.89" cy="40.94" r="13.44" /><circle cx="64.89" cy="40.94" r="2" /><circle class="disc" cx="180.63" cy="181.25" r="13.44" /><circle cx="180.63" cy="181.25" r="2" /><circle class="disc" cx="38.43" cy="94.81" r="13.44" /><circle cx="38.43" cy="94.81" r="2" /><circle class="disc" cx="128.79" cy="171.79" r="13.44" /><circle cx="128.79" cy="171.79" r="2" /><circle class="disc" cx="93.11" cy="111.41" r="13.44" /><circle cx="93.11" cy="111.41" r="2" /><circle class="disc" cx="36.71" cy="166.31" r="13.44" /><circle cx="36.71" cy="166.31" r="2" /><circle class="disc" cx="81.28" cy="177.38" r="13.44" /><circle cx="81.28" cy="177.38" r="2" /></g>
</svg>