<svg viewBox="0 0 220 220" xmlns="http://www.w3.org/2000/svg" role="img" aria-label="8 circles of radius 0.7 in polygon">
  <style>
    .bg { fill: #fff; }
    .cells path { fill: rgba(80, 110, 200, 0.06); stroke: #b6bdcd; stroke-width: 0.6; }
    .boundary { fill: none; stroke: #1a1a1a; stroke-width: 1.4; stroke-linejoin: round; }
    .sites circle { fill: #c2410c; stroke: #fff; stroke-width: 1; }
    .sites circle.disc { fill: rgba(194, 65, 12, 0.25); stroke: #c2410c; stroke-width: 1.2; }
  </style>
  <rect class="bg" width="100%" height="100%" />
  <g class="cells"><path d="M64.34,105.94 L103.66,139.28 L108.53,139.48 L110.26,138.46 L123.14,95.79 L80.46,78.03 Z" /><path d="M14.00,193.14 L71.50,193.14 L69.26,161.43 L42.01,144.62 Z" /><path d="M42.01,144.62 L69.26,161.43 L103.66,139.28 L64.34,105.94 Z" /><path d="M148.06,193.14 L206.00,193.14 L172.75,135.55 L153.34,147.45 Z" /><path d="M80.46,78.03 L123.14,95.79 L143.43,84.77 L110.00,26.86 Z" /><path d="M69.26,161.43 L71.50,193.14 L114.10,193.14 L108.53,139.48 L103.66,139.28 Z" /><path d="M108.53,139.48 L114.10,193.14 L148.06,193.14 L153.34,147.45 L110.26,138.46 Z" /><path d="M110.26,138.46 L153.34,147.45 L172.75,135.55 L143.43,84.77 L123.14,95.79 Z" /></g>
  <path class="boundary" d="M14.00,193.14 L206.00,193.14 L110.00,26.86 Z" />
  <g class="sites"><circle class="disc" cx="95.29" cy="107.10" r="13.44" /><circle cx="95.29" cy="107.10" r="2" /><circle class="disc" cx="47.37" cy="173.87" r="13.44" /><circle cx="47.37" cy="173.87" r="2" /><circle class="disc" cx="70.55" cy="136.29" r="13.44" /><circle cx="70.55" cy="136.29" r="2" /><circle class="disc" cx="171.23" cy="171.44" r="13.44" /><circle cx="171.23" cy="171.44" r="2" /><circle class="disc" cx="111.54" cy="68.07" r="13.44" /><circle cx="111.54" cy="68.07" r="2" /><circle class="disc" cx="92.67" cy="170.66" r="13.44" /><circle cx="92.67" cy="170.66" r="2" /><circle class="disc" cx="130.45" cy="166.74" r="13.44" /><circle cx="130.45" cy="166.74" r="2" /><circle class="disc" cx="140.08" cy="120.61" r="13.44" /><circle cx="140.08" cy="120.61" r="2" /></g>
</svg>